<?xml version="1.0" encoding="UTF-8" standalone="no"?>
<!DOCTYPE svg PUBLIC "-//W3C//DTD SVG 1.1//EN" "http://www.w3.org/Graphics/SVG/1.1/DTD/svg11.dtd">
<!-- Created with Vectornator (http://vectornator.io/) -->
<svg height="100%" stroke-miterlimit="10" style="fill-rule:nonzero;clip-rule:evenodd;stroke-linecap:round;stroke-linejoin:round;" version="1.1" viewBox="0 0 500 100" width="100%" xml:space="preserve" xmlns="http://www.w3.org/2000/svg" xmlns:vectornator="http://vectornator.io" xmlns:xlink="http://www.w3.org/1999/xlink">
<defs/>
<g id="Layer-1" vectornator:layerName="Layer 1">
<path d="M189.98 10.0443L190.011 90.1221L200.01 90.0605L219.991 90.0605L229.964 90.0605L229.964 80.042L229.964 70.0111L229.964 60.0062L219.991 60.0062L219.991 50.0036L219.991 50.0036L229.964 49.5828L229.964 40.0064L229.964 30.023L229.964 10.0443L219.991 10.0443L199.989 10.0443L189.98 10.0443Z" fill="#000002" fill-rule="nonzero" opacity="1" stroke="#141414" stroke-linecap="butt" stroke-linejoin="round" stroke-width="1" vectornator:layerName="Curve 2"/>
<path d="M240.149 10.9462L240.149 90.9623L279.954 90.9623L279.954 10.9462L240.149 10.9462Z" fill="#000002" fill-rule="nonzero" opacity="1" stroke="#141414" stroke-linecap="butt" stroke-linejoin="round" stroke-width="1" vectornator:layerName="Curve 3"/>
<path d="M250.091 19.4745L250.091 79.932L270.013 79.932L270.013 19.4745L250.091 19.4745Z" fill="#ffffff" fill-rule="nonzero" opacity="1" stroke="#141414" stroke-linecap="butt" stroke-linejoin="round" stroke-width="1" vectornator:layerName="Curve 6"/>
<path d="M140.044 10.0443L139.927 89.3623L149.898 89.3623L149.898 49.5828L169.92 49.5828L169.92 89.3623L179.88 89.3623L179.849 10.0443L140.044 10.0443Z" fill="#000002" fill-rule="nonzero" opacity="1" stroke="#141414" stroke-linecap="butt" stroke-linejoin="round" stroke-width="1" vectornator:layerName="Curve 7"/>
<path d="M149.988 20.9832L149.905 40.7069L169.928 40.7069L169.91 20.9832L149.988 20.9832Z" fill="#ffffff" fill-rule="nonzero" opacity="1" stroke="#141414" stroke-linecap="butt" stroke-linejoin="round" stroke-width="1" vectornator:layerName="Curve 8"/>
<path d="M199.926 61.0189L199.843 80.7425L219.866 80.7425L219.866 70.7116L209.972 70.7116L209.972 60.7067L199.926 61.0189Z" fill="#ffffff" fill-rule="nonzero" opacity="1" stroke="#141414" stroke-linecap="butt" stroke-linejoin="round" stroke-width="1" vectornator:layerName="Curve 13"/>
<path d="M200.043 20.9832L199.961 40.7069L219.983 40.7069L219.965 20.9832L200.043 20.9832Z" fill="#ffffff" fill-rule="nonzero" opacity="1" stroke="#141414" stroke-linecap="butt" stroke-linejoin="round" stroke-width="1" vectornator:layerName="Curve 12"/>
<path d="M380.082 10.6652L340.019 10.6652L340.019 21.2062L350.073 21.2062L350.073 91.2433L359.994 90.7429L359.994 21.2062L380.082 20.7058L380.082 10.6652Z" fill="#000002" fill-rule="nonzero" opacity="1" stroke="#141414" stroke-linecap="butt" stroke-linejoin="round" stroke-width="1" vectornator:layerName="Curve 9"/>
<path d="M289.948 10.1551L289.948 90.5608L299.874 90.5608L319.97 90.5608L329.892 90.5608L330.079 10.1551L320.051 10.1551L320.143 81.3418L300.094 81.3418L299.874 10.0443L289.948 10.1551Z" fill="#000002" fill-rule="nonzero" opacity="1" stroke="#141414" stroke-linecap="butt" stroke-linejoin="round" stroke-width="1" vectornator:layerName="Curve 5"/>
</g>
</svg>
