<?xml version="1.0" encoding="UTF-8" standalone="no"?>
<!DOCTYPE svg PUBLIC "-//W3C//DTD SVG 1.1//EN" "http://www.w3.org/Graphics/SVG/1.1/DTD/svg11.dtd">
<!-- Created with Vectornator (http://vectornator.io/) -->
<svg height="100%" stroke-miterlimit="10" style="fill-rule:nonzero;clip-rule:evenodd;stroke-linecap:round;stroke-linejoin:round;" version="1.1" viewBox="0 0 500 100" width="100%" xml:space="preserve" xmlns="http://www.w3.org/2000/svg" xmlns:vectornator="http://vectornator.io" xmlns:xlink="http://www.w3.org/1999/xlink">
<defs/>
<g id="Layer-1" vectornator:layerName="Layer 1">
<path d="M79.9293 10.1841L79.9605 90.2618L89.9594 90.2002L89.938 60.146L99.9306 60.146L99.9306 70.1509L109.94 70.1509L109.94 90.2002L119.913 90.2002L119.913 80.1818L119.913 70.1509L119.913 60.146L109.94 60.146L109.94 50.1433L109.94 50.1433L119.913 49.7226L119.913 40.1462L119.913 30.1628L119.913 10.1841L109.94 10.1841L109.94 30.1628L109.94 40.1462L99.9306 40.1462L99.9306 50.1433L89.938 50.1433L89.938 10.1841L79.9293 10.1841Z" fill="#ffffff" fill-rule="nonzero" opacity="1" stroke="#ffffff" stroke-linecap="butt" stroke-linejoin="round" stroke-width="1" vectornator:layerName="Curve 2"/>
<path d="M329.974 9.68368L330.005 89.7615L340.004 89.6999L339.983 59.6456L349.975 59.6456L349.975 69.6505L359.985 69.6505L359.985 89.6999L369.958 89.6999L369.958 79.6814L369.958 69.6505L369.958 59.6456L359.985 59.6456L359.985 49.643L359.985 49.643L369.958 49.2222L369.958 39.6458L369.958 29.6624L369.958 9.68368L359.985 9.68368L359.985 29.6624L359.985 39.6458L349.975 39.6458L349.975 49.643L339.983 49.643L339.983 9.68368L329.974 9.68368Z" fill="#ffffff" fill-rule="nonzero" opacity="1" stroke="#ffffff" stroke-linecap="butt" stroke-linejoin="round" stroke-width="1" vectornator:layerName="Curve 10"/>
<path d="M280.161 10.0636L280.044 89.3816L290.015 89.3816L290.015 49.6021L310.037 49.6021L310.037 89.3816L319.997 89.3816L319.966 10.0636L300.173 10.0636L300.173 19.4938L310.099 19.4938L310.099 40.0257L290.179 40.0257L290.179 19.4938L300.173 19.4938L300.173 10.0636L280.161 10.0636Z" fill="#ffffff" fill-rule="nonzero" opacity="1" stroke="#ffffff" stroke-linecap="butt" stroke-linejoin="round" stroke-width="1" vectornator:layerName="Curve 12"/>
<path d="M270.011 9.68368L229.948 9.68368L229.948 20.2247L240.002 20.2247L240.002 90.2618L249.923 89.7615L249.923 20.2247L270.011 19.7243L270.011 9.68368Z" fill="#ffffff" fill-rule="nonzero" opacity="1" stroke="#ffffff" stroke-linecap="butt" stroke-linejoin="round" stroke-width="1" vectornator:layerName="Curve 9"/>
<path d="M420.071 10.6845L380.008 10.6845L380.008 21.2255L390.062 21.2255L390.062 91.2626L399.983 90.7622L399.983 21.2255L420.071 20.7251L420.071 10.6845Z" fill="#ffffff" fill-rule="nonzero" opacity="1" stroke="#ffffff" stroke-linecap="butt" stroke-linejoin="round" stroke-width="1" vectornator:layerName="Curve 11"/>
<path d="M179.932 8.85532L179.932 89.2611L189.858 89.2611L190.011 18.8959L189.858 29.2237L189.858 48.7834L199.901 48.7834L199.901 59.2068L209.954 59.2068L209.954 89.2611L219.875 89.2611L220.062 8.85532L210.035 8.85532L209.954 39.207L199.901 39.207L199.901 29.2237L189.858 29.2237L189.858 18.7851L189.858 8.74452L179.932 8.85532Z" fill="#ffffff" fill-rule="nonzero" opacity="1" stroke="#ffffff" stroke-linecap="butt" stroke-linejoin="round" stroke-width="1" vectornator:layerName="Curve 5"/>
<path d="M130.031 10.0443L130.031 90.0605L170.093 90.0605L170.093 10.0443L150.053 10.0443L150.053 20.0436L160.013 20.0436L160.013 80.042L140.11 80.042L140.11 20.0436L150.053 20.0436L150.053 10.0443L130.031 10.0443Z" fill="#ffffff" fill-rule="nonzero" opacity="1" stroke="#ffffff" stroke-linecap="butt" stroke-linejoin="round" stroke-width="1" vectornator:layerName="Curve 13"/>
</g>
</svg>
