<?xml version="1.0" encoding="UTF-8" standalone="no"?>
<!DOCTYPE svg PUBLIC "-//W3C//DTD SVG 1.1//EN" "http://www.w3.org/Graphics/SVG/1.1/DTD/svg11.dtd">
<!-- Created with Vectornator (http://vectornator.io/) -->
<svg height="100%" stroke-miterlimit="10" style="fill-rule:nonzero;clip-rule:evenodd;stroke-linecap:round;stroke-linejoin:round;" version="1.1" viewBox="0 0 500 100" width="100%" xml:space="preserve" xmlns="http://www.w3.org/2000/svg" xmlns:vectornator="http://vectornator.io" xmlns:xlink="http://www.w3.org/1999/xlink">
<defs/>
<g id="Layer-1" vectornator:layerName="Layer 1">
<path d="M30.0051 10.2421L30.0363 90.3199L40.0353 90.2583L40.0138 60.204L50.0064 60.204L50.0064 70.2089L60.0161 70.2089L60.0161 90.2583L69.9885 90.2583L69.9885 80.2398L69.9885 70.2089L69.9885 60.204L60.0161 60.204L60.0161 50.2014L60.0161 50.2014L69.9885 49.7806L69.9885 40.2042L69.9885 30.2209L69.9885 10.2421L60.0161 10.2421L60.0161 30.2209L60.0161 40.2042L50.0064 40.2042L50.0064 50.2014L40.0138 50.2014L40.0138 10.2421L30.0051 10.2421Z" fill="#000002" fill-rule="nonzero" opacity="1" stroke="#141414" stroke-linecap="butt" stroke-linejoin="round" stroke-width="1" vectornator:layerName="Curve 2"/>
<path d="M80.0886 10.2421L80.0886 90.2583L119.894 90.2583L119.894 10.2421L80.0886 10.2421Z" fill="#000002" fill-rule="nonzero" opacity="1" stroke="#141414" stroke-linecap="butt" stroke-linejoin="round" stroke-width="1" vectornator:layerName="Curve 3"/>
<path d="M90.0254 19.7824L90.0254 80.2398L109.947 80.2398L109.947 19.7824L90.0254 19.7824Z" fill="#ffffff" fill-rule="nonzero" opacity="1" stroke="#141414" stroke-linecap="butt" stroke-linejoin="round" stroke-width="1" vectornator:layerName="Curve 6"/>
<path d="M170.123 9.74172L130.06 9.74172L130.06 89.8195L170.123 89.8195L170.123 80.0005L140.169 80.0005L140.169 49.8014L150.206 49.7806L150.206 39.8381L140.169 39.8381L140.169 19.7824L170.123 19.7824L170.123 9.74172Z" fill="#000002" fill-rule="nonzero" opacity="1" stroke="#141414" stroke-linecap="butt" stroke-linejoin="round" stroke-width="1" vectornator:layerName="Curve 4"/>
<path d="M330.141 9.74172L330.173 89.8195L340.171 89.7579L340.15 59.7036L350.143 59.7036L350.143 69.7085L360.152 69.7085L360.152 89.7579L370.125 89.7579L370.125 79.7395L370.125 69.7085L370.125 59.7036L360.152 59.7036L360.152 49.701L360.152 49.701L370.125 49.2802L370.125 39.7038L370.125 29.7205L370.125 9.74172L360.152 9.74172L360.152 29.7205L360.152 39.7038L350.143 39.7038L350.143 49.701L340.15 49.701L340.15 9.74172L330.141 9.74172Z" fill="#000002" fill-rule="nonzero" opacity="1" stroke="#141414" stroke-linecap="butt" stroke-linejoin="round" stroke-width="1" vectornator:layerName="Curve 10"/>
<path d="M380.225 9.74172L380.225 89.7579L420.03 89.7579L420.03 9.74172L380.225 9.74172Z" fill="#000002" fill-rule="nonzero" opacity="1" stroke="#141414" stroke-linecap="butt" stroke-linejoin="round" stroke-width="1" vectornator:layerName="Curve 11"/>
<path d="M390.162 19.282L390.162 79.7395L410.083 79.7395L410.083 19.282L390.162 19.282Z" fill="#ffffff" fill-rule="nonzero" opacity="1" stroke="#141414" stroke-linecap="butt" stroke-linejoin="round" stroke-width="1" vectornator:layerName="Curve 12"/>
<path d="M470.259 9.24134L430.197 9.24134L430.197 89.3191L470.259 89.3191L470.259 79.5001L440.306 79.5001L440.306 49.301L450.342 49.2802L450.342 39.3377L440.306 39.3377L440.306 19.282L470.259 19.282L470.259 9.24134Z" fill="#000002" fill-rule="nonzero" opacity="1" stroke="#141414" stroke-linecap="butt" stroke-linejoin="round" stroke-width="1" vectornator:layerName="Curve 13"/>
<path d="M230.128 10.7425L230.128 90.7587L269.933 90.7587L269.933 10.7425L230.128 10.7425Z" fill="#000002" fill-rule="nonzero" opacity="1" stroke="#141414" stroke-linecap="butt" stroke-linejoin="round" stroke-width="1" vectornator:layerName="Curve 7"/>
<path d="M240.065 20.2827L240.065 80.7402L259.986 80.7402L259.986 20.2827L240.065 20.2827Z" fill="#ffffff" fill-rule="nonzero" opacity="1" stroke="#141414" stroke-linecap="butt" stroke-linejoin="round" stroke-width="1" vectornator:layerName="Curve 8"/>
<path d="M320.162 10.2421L280.1 10.2421L280.1 90.3199L320.162 90.3199L320.162 80.5009L290.209 80.5009L290.209 50.3018L300.245 50.281L300.245 40.3384L290.209 40.3384L290.209 20.2827L320.162 20.2827L320.162 10.2421Z" fill="#000002" fill-rule="nonzero" opacity="1" stroke="#141414" stroke-linecap="butt" stroke-linejoin="round" stroke-width="1" vectornator:layerName="Curve 9"/>
<path d="M179.87 10.1027L179.87 90.5085L189.796 90.5085L189.949 20.1433L189.796 30.4711L189.796 50.0308L199.839 50.0308L199.839 60.4542L209.892 60.4542L209.892 90.5085L219.814 90.5085L220 10.1027L209.973 10.1027L209.892 40.4544L199.839 40.4544L199.839 30.4711L189.796 30.4711L189.796 20.0325L189.796 9.99192L179.87 10.1027Z" fill="#000002" fill-rule="nonzero" opacity="1" stroke="#141414" stroke-linecap="butt" stroke-linejoin="round" stroke-width="1" vectornator:layerName="Curve 5"/>
</g>
</svg>
