<?xml version="1.0" encoding="UTF-8" standalone="no"?>
<!DOCTYPE svg PUBLIC "-//W3C//DTD SVG 1.1//EN" "http://www.w3.org/Graphics/SVG/1.1/DTD/svg11.dtd">
<!-- Created with Vectornator (http://vectornator.io/) -->
<svg height="100%" stroke-miterlimit="10" style="fill-rule:nonzero;clip-rule:evenodd;stroke-linecap:round;stroke-linejoin:round;" version="1.1" viewBox="0 0 500 100" width="100%" xml:space="preserve" xmlns="http://www.w3.org/2000/svg" xmlns:vectornator="http://vectornator.io" xmlns:xlink="http://www.w3.org/1999/xlink">
<defs/>
<g id="Layer-1" vectornator:layerName="Layer 1">
<path d="M329.937 10.6562L329.968 90.7339L339.967 90.6723L339.945 60.6181L349.938 60.6181L349.938 70.623L359.948 70.623L359.948 90.6723L369.92 90.6723L369.92 80.6539L369.92 70.623L369.92 60.6181L359.948 60.6181L359.948 50.6154L359.948 50.6154L369.92 50.1947L369.92 40.6182L369.92 30.6349L369.92 10.6562L359.948 10.6562L359.948 30.6349L359.948 40.6182L349.938 40.6182L349.938 50.6154L339.945 50.6154L339.945 10.6562L329.937 10.6562Z" fill="#000002" fill-rule="nonzero" opacity="1" stroke="#141414" stroke-linecap="butt" stroke-linejoin="round" stroke-width="1" vectornator:layerName="Curve 2"/>
<path d="M229.969 10.7178L229.969 90.7339L269.774 90.7339L269.774 10.7178L229.969 10.7178Z" fill="#000002" fill-rule="nonzero" opacity="1" stroke="#141414" stroke-linecap="butt" stroke-linejoin="round" stroke-width="1" vectornator:layerName="Curve 3"/>
<path d="M240.092 20.4971L240.092 80.9546L260.013 80.9546L260.013 20.4971L240.092 20.4971Z" fill="#ffffff" fill-rule="nonzero" opacity="1" stroke="#141414" stroke-linecap="butt" stroke-linejoin="round" stroke-width="1" vectornator:layerName="Curve 6"/>
<path d="M279.94 11.0168L279.991 90.7339L289.99 90.6723L289.845 50.9725L299.889 50.9725L299.961 70.623L309.971 70.623L309.971 90.6723L319.943 90.6723L319.943 80.6539L319.943 70.623L319.943 60.6181L309.971 60.6181L309.971 50.6154L309.971 50.6154L319.943 50.1947L319.943 40.6182L319.943 30.6349L319.943 11.0168L299.889 11.0168L299.889 20.4971L309.822 20.4971L309.971 40.6182L289.845 40.9789L289.845 20.4971L299.889 20.4971L299.889 11.0168L279.94 11.0168Z" fill="#000002" fill-rule="nonzero" opacity="1" stroke="#141414" stroke-linecap="butt" stroke-linejoin="round" stroke-width="1" vectornator:layerName="Curve 10"/>
<path d="M170.008 91.3458L179.934 91.3458L180.017 60.0894L180.017 80.1252L180.024 70.0111L190.078 70.0111L190.009 60.0894L200.019 60.0894L199.999 70.0111L210.127 70.0111L209.991 80.1252L209.991 60.0894L209.991 90.1221L220.091 90.1221L220.091 10.0443L209.991 10.1275L209.991 50.0832L200.019 50.0832L200.019 30.1062L190.009 30.1062L190.009 50.0832L180.017 50.0832L180.017 30.1062L180.017 10.4049L170.008 10.4049L170.008 91.3458Z" fill="#000002" fill-rule="nonzero" opacity="1" stroke="#141414" stroke-linecap="butt" stroke-linejoin="round" stroke-width="1" vectornator:layerName="Curve 5"/>
</g>
</svg>
